<?xml version="1.0" encoding="UTF-8" standalone="no"?>
<svg width="95px" height="95px" viewBox="0 0 95 95" version="1.1" xmlns="http://www.w3.org/2000/svg" xmlns:xlink="http://www.w3.org/1999/xlink">
    <!-- Generator: Sketch 40.1 (33804) - http://www.bohemiancoding.com/sketch -->
    <title>Organization</title>
    <desc>Created with Sketch.</desc>
    <defs>
        <circle id="path-1" cx="47.5" cy="47.5" r="46.5"></circle>
    </defs>
    <g id="Page-1" stroke="none" stroke-width="1" fill="none" fill-rule="evenodd">
        <g id="Organization">
            <mask id="mask-2" fill="white">
                <use xlink:href="#path-1"></use>
            </mask>
            <use id="Oval" stroke="#979797" fill="#D8D8D8" xlink:href="#path-1"></use>
            <rect id="Rectangle" fill="#FDFDFD" mask="url(#mask-2)" x="7" y="37" width="21" height="58"></rect>
            <path d="M81.7,41 L85,41 L85,51 L89,51 L89,109 L66,109 L66,51 L70,51 L70,41 L73.3,41 L77.5,27 L81.7,41 Z" id="Combined-Shape" fill="#FDFDFD" mask="url(#mask-2)"></path>
            <rect id="Rectangle-3" fill="#FDFDFD" mask="url(#mask-2)" x="32" y="24" width="30" height="74"></rect>
            <rect id="Rectangle-2" fill="#D8D8D8" mask="url(#mask-2)" x="15" y="44" width="5" height="5"></rect>
            <rect id="Rectangle-2-Copy" fill="#D8D8D8" mask="url(#mask-2)" x="15" y="55" width="5" height="5"></rect>
            <rect id="Rectangle-2-Copy-2" fill="#D8D8D8" mask="url(#mask-2)" x="15" y="66" width="5" height="5"></rect>
            <rect id="Rectangle-2-Copy-3" fill="#D8D8D8" mask="url(#mask-2)" x="15" y="77" width="5" height="5"></rect>
            <rect id="Rectangle-2-Copy-4" fill="#D8D8D8" mask="url(#mask-2)" x="38" y="32" width="5" height="5"></rect>
            <rect id="Rectangle-2-Copy-12" fill="#D8D8D8" mask="url(#mask-2)" x="71" y="56" width="5" height="5"></rect>
            <rect id="Rectangle-2-Copy-14" fill="#D8D8D8" mask="url(#mask-2)" x="71" y="66" width="5" height="5"></rect>
            <rect id="Rectangle-2-Copy-16" fill="#D8D8D8" mask="url(#mask-2)" x="71" y="76" width="5" height="5"></rect>
            <rect id="Rectangle-2-Copy-18" fill="#D8D8D8" mask="url(#mask-2)" x="71" y="87" width="5" height="5"></rect>
            <rect id="Rectangle-2-Copy-13" fill="#D8D8D8" mask="url(#mask-2)" x="80" y="56" width="5" height="5"></rect>
            <rect id="Rectangle-2-Copy-15" fill="#D8D8D8" mask="url(#mask-2)" x="80" y="66" width="5" height="5"></rect>
            <rect id="Rectangle-2-Copy-17" fill="#D8D8D8" mask="url(#mask-2)" x="80" y="76" width="5" height="5"></rect>
            <rect id="Rectangle-2-Copy-19" fill="#D8D8D8" mask="url(#mask-2)" x="80" y="87" width="5" height="5"></rect>
            <rect id="Rectangle-2-Copy-5" fill="#D8D8D8" mask="url(#mask-2)" x="51" y="32" width="5" height="5"></rect>
            <rect id="Rectangle-2-Copy-6" fill="#D8D8D8" mask="url(#mask-2)" x="45" y="44" width="5" height="5"></rect>
            <rect id="Rectangle-2-Copy-7" fill="#D8D8D8" mask="url(#mask-2)" x="38" y="55" width="5" height="5"></rect>
            <rect id="Rectangle-2-Copy-8" fill="#D8D8D8" mask="url(#mask-2)" x="51" y="56" width="5" height="5"></rect>
            <rect id="Rectangle-2-Copy-9" fill="#D8D8D8" mask="url(#mask-2)" x="45" y="71" width="5" height="5"></rect>
            <rect id="Rectangle-2-Copy-10" fill="#D8D8D8" mask="url(#mask-2)" x="38" y="84" width="5" height="5"></rect>
            <rect id="Rectangle-2-Copy-11" fill="#D8D8D8" mask="url(#mask-2)" x="51" y="84" width="5" height="5"></rect>
            <circle id="Oval" stroke="#979797" mask="url(#mask-2)" cx="47.5" cy="47.5" r="46.5"></circle>
        </g>
    </g>
</svg>